PathFileType	4	(X/Y/Z)	OpenSim_Sub09_CSBaseline_Accel.trc
DataRate	CameraRate	NumFrames	NumMarkers	Units	OrigDataRate	OrigDataStartFrame	OrigNumFrames
100	100	37	8	m	100	5111	5840
Frame#	Time	torso_imu_offset_imu	pelvis_imu_offset_imu	tibia_r_imu_offset_imu	femur_r_imu_offset_imu	tibia_l_imu_offset_imu	femur_l_imu_offset_imu	toes_r_imu_offset_imu	toes_l_imu_offset_imu
				X1	Y1	Z1	X2	Y2	Z2	X3	Y3	Z3	X4	Y4	Z4	X5	Y5	Z5	X6	Y6	Z6	X7	Y7	Z7	X8		Y8	Z8	

5111	51.10000000	8.80108419	1.09411322	6.68450399	9.53665057	-1.76208335	3.23590041	3.69995053	14.02224882	-4.31304081	11.54331558	-1.39788105	2.77119947	9.99308203	1.88482230	2.45680855	8.84071988	1.22646111	-1.50009637	15.12512581	-8.92708544	14.62814740	4.95820241	1.99453232	11.06326620
5112	51.11000000	9.04085985	1.04377522	6.66866949	9.44570593	-1.31357377	3.22854759	1.55411758	14.50927679	-1.85576294	11.97529322	-1.49178403	2.77009881	9.99724552	-1.20057024	0.69191871	9.33256403	0.70139433	-1.75161682	-2.05338303	-10.45374034	9.43162440	4.87184073	1.93019999	11.14133369
5113	51.12000000	9.18550336	0.93036194	6.65217419	9.42203936	-0.93603657	3.11101675	1.16930720	11.78945890	0.37508708	12.16653590	-1.51208423	2.58121734	9.82941752	-4.19674588	-1.82353563	9.64277001	0.54887650	-1.87795439	-6.79793224	-10.28148114	7.10172197	5.10248716	2.18965714	11.01630751
5114	51.13000000	8.98672188	0.85845853	6.66577219	9.44211887	-0.70030370	3.00997126	2.45987251	8.33120109	-0.01135579	11.75149415	-1.46862054	2.39744083	9.42542052	-6.75107172	-3.65600380	9.49098284	0.21647309	-1.72888773	-3.70037982	-6.89537326	6.71583527	4.80905173	2.58815455	10.97823170
5115	51.14000000	8.70427159	0.83813217	6.59677290	9.51303044	-0.57608667	2.90421926	3.70418495	5.93076893	-0.14419906	11.05212795	-1.39786446	2.40650990	8.88076000	-8.26513268	-4.12501567	9.52531085	0.90849318	-1.83074745	-1.85969040	-3.81613527	7.10225415	4.83920851	2.88282819	10.84117688
5116	51.15000000	8.58671451	0.79917616	6.45201862	9.53383143	-0.54865560	2.84507012	4.32801012	4.49966684	0.84283897	10.40669649	-1.08235065	2.32779490	8.73757257	-7.38363598	-3.19973809	9.47968797	0.84444174	-1.84188626	-0.81801527	-2.21345719	7.91194499	5.04440406	2.87430521	10.62479529
5117	51.16000000	8.56352758	0.77823003	6.35717222	9.45050190	-0.63674466	2.76836437	4.15403317	3.32097870	1.00747098	9.87215404	-0.60203726	2.47574974	9.18547125	-4.60716290	-1.68595315	9.10668034	0.81098666	-1.75150339	0.87472108	-1.59264115	8.50915867	5.16258724	2.56087172	10.55612313
5118	51.17000000	8.47151302	0.68126192	6.35545421	9.25008024	-0.77989569	2.79258458	3.71108679	2.95589383	0.44960844	9.40606588	-0.09289774	2.67636354	10.08175379	-1.45310556	-0.17142883	8.85361932	1.05642205	-1.75796115	1.95968485	-1.89047445	8.57611291	4.84135466	2.41128714	10.85748760
5119	51.18000000	8.34252302	0.65305858	6.30455980	9.04085262	-0.92885900	2.82188447	3.53002875	3.16874937	0.30744147	8.92408911	0.23081806	2.89764442	10.41448225	0.54764426	0.81131249	8.84125435	0.97710952	-1.88517918	2.34028230	-2.65397274	8.46010769	4.66382888	2.34671883	11.06012425
5120	51.19000000	8.23517395	0.60029870	6.33547576	8.71467433	-1.12396645	2.84721803	3.72569834	3.48088649	0.47060713	8.63879104	0.31315805	2.99091944	10.15738550	1.21607205	1.35337877	9.08427384	1.20008498	-1.68636523	3.06581045	-3.08156124	8.49104192	4.91585476	1.96350534	10.95833627
5121	51.20000000	8.10125207	0.56422357	6.27419223	8.47553900	-1.22983009	2.81725277	4.15579429	3.77512772	0.38138297	8.36390556	0.12609484	3.06279021	9.69868076	0.54822816	1.30577427	9.36223977	1.72303928	-1.60408607	3.94810926	-2.63089343	8.70677343	5.04095045	1.88685117	10.93969789
5122	51.21000000	7.96858598	0.60911644	6.22302765	8.29695196	-1.30115733	2.75105712	4.65843179	4.32736122	0.47674028	8.12176051	0.12198721	3.13486662	9.40636617	-1.00285375	0.93101482	9.37912431	2.01193562	-1.41088040	4.50445400	-1.58605033	9.06586431	4.88926335	1.83385188	10.94699474
5123	51.22000000	7.84444960	0.64778898	6.24900358	8.26137536	-1.36307021	2.71096773	5.35074976	5.17773161	0.85409637	7.92378770	-0.09531513	3.14014705	9.34799141	-2.25123100	0.29890083	9.68317364	2.42587214	-1.23197989	4.72820935	-0.42488141	9.48373437	4.56607634	2.24142555	11.21023428
5124	51.23000000	7.79102099	0.69206000	6.32862795	8.27845723	-1.38694277	2.68087318	6.10424000	6.09183442	1.00772124	7.78100170	-0.30101271	3.09945048	9.19919290	-2.70561308	-0.08915540	9.39751959	2.60603811	-0.93194617	4.99551306	0.65917824	9.97647010	4.62451116	2.28919834	11.05171470
5125	51.24000000	7.79789256	0.77948388	6.36150090	8.40963977	-1.37913533	2.60675460	6.53284502	6.96796731	0.92336229	7.59422653	-0.38967136	2.95885993	9.15261182	-2.37194511	-0.39667757	9.19152369	2.90350394	-0.83871497	5.62057454	1.32470085	10.20781023	4.61422270	2.35526273	10.96920917
5126	51.25000000	7.85188019	0.84204564	6.36871498	8.42392481	-1.42839989	2.56957137	6.50066434	7.38264841	0.98407290	7.28694994	-0.39758114	2.75845864	9.49792949	-1.75633505	-0.41985385	9.07135745	3.15766515	-0.75477715	6.25896921	1.18319337	10.32753945	5.23534209	2.14793153	10.77750771
5127	51.26000000	7.92463661	0.90370081	6.46782055	8.58638408	-1.49245121	2.53881987	6.18595581	7.13137445	0.97149919	7.07935412	-0.50678661	2.47732307	9.84435604	-1.11670709	-0.33832150	8.28057783	3.01406281	-0.99385191	6.92528989	0.43537913	10.24698623	5.16621656	2.07271101	10.86714193
5128	51.27000000	7.97622893	0.87188379	6.53893396	8.69755312	-1.55526565	2.56212956	5.89129594	6.20474625	1.07734126	7.00670250	-0.43305367	2.28953333	10.00518409	-1.00084238	-0.54343244	8.77179837	3.13488595	-0.97051992	7.46215487	-0.11864317	10.14581708	4.92765212	2.16139363	10.86778653
5129	51.28000000	8.04459456	0.90934149	6.61696004	8.85219302	-1.60111648	2.57526878	6.32255299	5.02514512	0.90180622	6.99947207	-0.25594483	2.29012236	10.03811142	-1.07728693	-0.50775876	8.75809713	2.72662100	-1.26517060	7.95725695	0.00479609	10.21888544	5.03489752	2.23861261	10.96974757
5130	51.29000000	8.15917143	0.87771302	6.68521109	8.92649796	-1.62253187	2.52814014	7.13162238	4.63390280	0.54461727	7.01089364	-0.15050010	2.39855916	9.93044131	-1.08852909	-0.67747230	8.78766116	2.56512854	-1.45388933	8.10821767	0.42519976	10.32539699	5.18681957	2.15201478	10.92285938
5131	51.30000000	8.18921424	0.89132819	6.65557450	8.93130118	-1.65022525	2.45991547	8.31369859	5.35286324	0.33715603	7.02818933	-0.24950385	2.56373957	10.05143805	-0.90595195	-0.74137539	8.89209954	2.46473891	-1.67431599	8.25911705	0.55104695	10.89730409	4.88366846	2.21491706	10.95010276
5132	51.31000000	8.19161263	0.90449425	6.65018512	8.95287943	-1.61619877	2.36984319	9.59330177	6.20941564	-0.40247301	6.97554320	-0.48829169	2.79136227	10.11006683	-0.90257499	-0.84514259	9.05563364	2.05542331	-1.68663646	9.33440335	0.12244734	12.01552634	4.57585669	2.31297884	11.26229467
5133	51.32000000	8.25783124	0.94815595	6.61916948	8.88274661	-1.60402670	2.20951333	10.49401187	6.36750119	-1.40334914	6.88128459	-0.87120552	3.02373003	10.14038024	-1.04176145	-0.79775393	9.10844356	2.14918025	-1.88663226	12.26771421	-0.86777165	13.30401229	5.01092206	2.32316912	10.93723978
5134	51.33000000	8.34949216	0.98049483	6.65260148	8.85055850	-1.72866903	2.13156031	10.72345271	6.15485431	-1.45265827	6.79741617	-1.30397396	3.15949739	9.84865204	-1.29080884	-0.78346336	9.29157293	1.73079248	-1.92748157	14.71984135	-1.58690311	13.67719536	5.02834072	2.21397614	10.92012636
5135	51.34000000	8.43921341	1.04694910	6.62811926	8.81074387	-1.80953741	2.07109939	10.22418804	5.63347971	-0.94254458	6.84149706	-1.93889147	3.30857532	9.96683260	-1.74984230	-0.62809811	9.31345881	1.47439898	-1.87682326	15.37491228	-1.97842178	13.14196884	4.93278404	2.08462045	11.01403472
5136	51.35000000	8.52827602	1.08113194	6.63409220	8.91642726	-1.92224372	2.04354123	9.48939104	5.31649731	0.23737404	7.05666874	-2.72629163	3.37455238	10.03265053	-1.87774316	-0.52791656	9.29976729	1.39839908	-1.89335853	15.40093455	-1.98159055	12.06233391	4.73098847	2.15948034	11.16865425
5137	51.36000000	8.66622733	1.07785945	6.65589696	9.03210304	-1.99563627	1.95537347	9.57783852	4.75821653	1.66590301	7.37456508	-3.54369853	3.50893640	9.97744021	-1.61626487	-0.29445526	9.49265420	1.17243413	-1.77160529	16.14394336	-2.39483331	10.79440712	4.76717497	2.13649419	11.17808288
5138	51.37000000	8.75554755	1.05330549	6.66834477	9.15394016	-2.02877118	1.85707341	10.49409281	3.72473458	2.51826014	7.72270428	-4.23087536	3.68757652	10.02574570	-1.31885750	-0.01537548	9.59902935	1.08121882	-1.71078181	17.77763352	-3.24630315	9.55667621	4.86128787	2.03733534	11.11725175
5139	51.38000000	8.79217682	1.04347488	6.66653302	9.28416990	-2.05885920	1.82835087	11.49295553	2.31010646	2.69595070	8.16319296	-4.80676044	3.99920040	10.03330488	-0.97291795	0.12958500	9.42214712	1.11881328	-1.67089227	18.87961408	-3.92669773	8.05598835	5.17421310	1.77795604	11.05005134
5140	51.39000000	8.82928061	1.04987055	6.63572926	9.28485413	-2.04499639	1.96808081	11.62941276	0.85657476	2.13644722	8.68299091	-5.38801927	4.40538299	10.15160697	-0.73456391	-0.12530429	9.54092606	1.04879823	-1.59999191	17.87036686	-3.12951261	5.81656043	4.70519298	1.92589937	11.30243897
5141	51.40000000	8.94347020	1.03664004	6.59010836	9.22442117	-2.00528878	2.07126537	10.89075060	-0.59990343	1.90922736	9.18386393	-5.79539411	4.76061436	10.23328536	-0.80158160	-0.19268561	9.69611984	1.10222267	-1.48634405	15.40935164	-1.81862679	3.08989494	4.60494925	2.21623737	11.32744871
5142	51.41000000	8.95130831	1.02320748	6.42409905	9.08106311	-2.03894220	2.11852087	9.93569558	-1.75502592	2.37087475	9.56297299	-6.37466721	4.92831574	10.13602850	-0.73352379	-0.24795429	9.72103655	1.09643920	-1.43087182	14.42473612	-0.39983134	0.85006837	5.11026445	2.05217519	11.11311306
5143	51.42000000	8.99078202	1.03924518	6.32706681	9.02449837	-2.05118746	2.16527118	9.56002412	-3.20666543	1.94439757	9.75985353	-7.22739322	5.08173668	10.08768947	-0.92411394	-0.35750801	9.62880509	1.25260816	-1.46600579	15.18393323	0.94039463	-0.97367567	5.12139160	2.05284819	11.16907410
5144	51.43000000	8.96008804	1.07127008	6.32489169	8.87298813	-2.23191170	2.14027327	9.56718310	-4.02818185	2.26058933	9.68312913	-7.84928141	4.95542624	10.16860515	-1.21277927	-0.42092775	9.60071483	1.47291816	-1.59608998	16.56359752	1.55861936	-2.67801971	4.79738195	2.13472293	11.25966501
5145	51.44000000	9.01339028	1.10041357	6.21546758	8.83038365	-2.13779869	2.11444508	9.19892946	-3.70229624	2.45451071	9.35828365	-8.30428249	4.63540079	10.10590487	-1.46533063	-0.46291953	9.67521176	1.72183848	-1.66373566	18.37958152	2.31512090	-4.00038302	4.50392601	2.35572157	11.44135598
5146	51.45000000	9.15621395	1.10532373	6.01284434	8.76801507	-2.11294769	1.92279351	8.11826597	-2.96352736	2.21123591	9.29578596	-8.73836392	4.36194880	10.25709241	-1.47954566	-0.42381951	9.54132182	1.87463709	-1.75333341	18.74065574	3.66310147	-4.83919185	4.96627942	2.03801104	11.25290582
5147	51.46000000	9.32278914	1.04815892	5.96598833	8.65270160	-2.23499365	1.64913914	6.71103020	-1.96854433	1.88906934	9.33323508	-9.17905110	4.29278701	10.28563361	-1.46536430	-0.55270745	9.45850991	1.97435957	-1.68407887	17.50538961	4.59920224	-5.26402515	5.00278497	1.82478863	11.32226684
